<svg width="101" height="100" viewBox="0 0 101 100" fill="none" xmlns="http://www.w3.org/2000/svg">
<g clip-path="url(#clip0_2091_34)">
<path d="M98.3976 48.0545C96.7523 45.916 94.2644 44.5893 91.5719 44.4143C88.8781 44.2393 86.2406 45.2332 84.3326 47.1412L82.567 48.9067V28.7731C82.567 26.0807 80.3764 23.8903 77.6836 23.8903H69.8703C67.1775 23.8903 64.9869 26.0807 64.9869 28.7731V54.8549H59.1269V36.5856C59.1269 33.8932 56.9363 31.7028 54.2435 31.7028H46.4303C43.7375 31.7028 41.5469 33.8932 41.5469 36.5856V49.317H36.6744C36.3439 49.317 36.0146 49.3322 35.6867 49.3563V44.3981C35.6867 41.7057 33.4961 39.5153 30.8033 39.5153H22.99C20.2972 39.5153 18.1066 41.7057 18.1066 44.3981V60.8717L17.3816 61.4867C15.2455 59.383 11.8849 58.8647 9.16502 60.4348L3.74998 63.5608C0.485723 65.4457 -0.636933 69.6348 1.24803 72.8989L14.9238 96.5836C16.1887 98.7742 18.4914 100 20.856 100C22.015 100 23.189 99.7055 24.2627 99.0856L29.6777 95.9596C32.207 94.4992 33.4492 91.6559 33.0045 88.9311H63.5926C67.1523 88.9311 70.6344 87.4842 73.1457 84.9615L97.6107 60.3873C100.915 57.0682 101.253 51.7664 98.3976 48.0545ZM93.4576 56.2537L68.9926 80.828C67.573 82.2539 65.6047 83.0717 63.5926 83.0717H33.6519H30.1305L21.2176 67.6356L20.5515 66.4821L31.7451 56.9856C33.1205 55.8188 34.8711 55.1762 36.6748 55.1762H45.2295C46.4888 55.1762 47.6603 55.7418 48.4431 56.7281L49.6711 58.2754C50.9013 59.8254 52.7418 60.7141 54.7205 60.7141H66.3846C68.1623 60.7141 69.6084 62.16 69.6084 63.9375C69.6084 65.7151 68.1623 67.161 66.3846 67.161H44.2306C42.7176 67.161 41.4728 68.308 41.3176 69.7799C41.3068 69.8821 41.3008 69.9856 41.3008 70.0907C41.3008 71.7086 42.6127 73.0203 44.2308 73.0203H55.8713H66.3848C71.2721 73.0203 75.2681 69.1408 75.4594 64.3L88.4763 51.2842C89.2025 50.5578 90.1674 50.1922 91.1922 50.2614C92.2174 50.328 93.1265 50.8127 93.7529 51.6268C94.824 53.0196 94.6971 55.0086 93.4576 56.2537ZM26.7478 90.8854L21.333 94.0114C20.8664 94.2801 20.268 94.1199 19.9986 93.6539L6.32283 69.9692C6.0535 69.5028 6.21404 68.9045 6.68045 68.6352L12.0953 65.5092C12.2488 65.4207 12.4166 65.3785 12.582 65.3785C12.9199 65.3785 13.2486 65.5535 13.4295 65.8666L27.1053 89.5514C27.3744 90.0178 27.214 90.616 26.7478 90.8854ZM76.707 29.7496V54.7662L73.3533 58.1196C72.6523 57.2817 71.8031 56.5729 70.8469 56.0311V29.7496H76.707ZM53.267 37.5621V53.3805L53.0332 53.0858C51.5933 51.2717 49.6121 50.0453 47.407 49.5561V37.5621H53.267ZM23.9668 45.3746H29.8267V51.1879C29.1691 51.5754 28.5416 52.019 27.9535 52.5178L23.9668 55.9002V45.3746Z" fill="#2B76FE"/>
<path d="M23.9715 33.6045C24.3867 33.6045 24.8088 33.5157 25.2097 33.3284L71.5834 11.6606L70.8506 13.7075C70.3053 15.2309 71.098 16.9079 72.6213 17.4532C72.9476 17.5702 73.2808 17.6254 73.6086 17.6254C74.8109 17.6254 75.9386 16.8795 76.367 15.6825L79.4683 7.01959C79.7302 6.28814 79.691 5.48248 79.3586 4.77994C79.0265 4.0774 78.4289 3.5358 77.6974 3.27389L69.0347 0.172519C67.5107 -0.373575 65.8342 0.41998 65.289 1.94322C64.7437 3.46666 65.5365 5.14361 67.0597 5.68892L69.0201 6.39068L22.7291 28.0198C21.2633 28.7047 20.6301 30.4485 21.315 31.9141C21.8129 32.9792 22.8687 33.6045 23.9715 33.6045Z" fill="#2B76FE"/>
</g>
<defs>
<clipPath id="clip0_2091_34">
<rect width="100" height="100" fill="white" transform="translate(0.333374)"/>
</clipPath>
</defs>
</svg>
