<svg width="100" height="88" viewBox="0 0 100 88" fill="none" xmlns="http://www.w3.org/2000/svg">
<path d="M73.6345 1.31037C73.0852 0.75647 72.336 0.44519 71.5555 0.44519C70.775 0.44519 70.0266 0.757233 69.4765 1.31113L60.8217 10.0331C60.2487 10.6098 59.4881 10.928 58.6809 10.928C58.0659 10.928 43.3557 10.928 40.7777 10.928C39.9698 10.928 39.2099 10.6098 38.6316 10.0285L30.1286 1.50186C29.5793 0.950257 28.8323 0.640503 28.0541 0.640503C28.0534 0.640503 28.0519 0.640503 28.0511 0.640503C27.2714 0.641266 26.5245 0.953309 25.9751 1.50644L0.655422 27.0131C-0.480597 28.1575 -0.478308 30.0046 0.660763 31.1467L7.92243 38.4221C9.29801 39.8084 10.0556 41.6524 10.0556 43.6154C10.0556 46.1553 10.7682 48.5845 12.0927 50.6772C9.21028 54.1822 9.39643 59.4022 12.6542 62.6836C14.2312 64.2728 16.2965 65.1914 18.5113 65.2997C18.6128 67.4421 19.4734 69.5539 21.0938 71.1858C22.6708 72.775 24.7361 73.6936 26.9517 73.8019C27.0524 75.9443 27.9138 78.0561 29.5335 79.688C32.084 82.2576 35.7438 82.9053 38.8345 81.7953C39.2602 83.0251 39.9591 84.1787 40.9326 85.1591C44.4108 88.664 50.0513 88.6648 53.5303 85.1591L54.767 83.914C55.5399 83.135 56.1388 82.2462 56.566 81.2978C60.0259 84.3549 65.3589 84.287 68.7303 80.8904C70.3508 79.2585 71.2114 77.1467 71.3121 75.0043C73.5269 74.8968 75.593 73.9774 77.17 72.3882C78.7905 70.7563 79.6511 68.6445 79.7525 66.5021C81.9666 66.3945 84.0326 65.4752 85.6096 63.8868C88.8491 60.6237 89.0528 55.4425 86.2207 51.9376C88.2845 49.03 89.4022 45.5594 89.4022 41.9148C89.4022 41.0611 89.7448 40.2264 90.3422 39.6245L98.9542 30.9453C100.088 29.8032 100.088 27.9599 98.9542 26.8178L73.6345 1.31037ZM16.813 54.1814L21.0328 49.9303C22.2177 48.7363 24.1281 48.7355 25.3137 49.9303C26.5115 51.1365 26.5115 53.0988 25.3137 54.3042L21.0938 58.5561C19.9082 59.7501 17.9986 59.7501 16.813 58.5561C15.6159 57.3499 15.6159 55.3876 16.813 54.1814ZM25.2526 62.6836L33.6923 54.1814C34.8779 52.9874 36.7883 52.9866 37.9739 54.1814C39.171 55.3876 39.171 57.3499 37.9739 58.5561C34.9656 61.5865 34.8054 61.7475 29.5335 67.0583C28.3479 68.2515 26.4382 68.2523 25.2526 67.0575C24.0556 65.8521 24.0556 63.8898 25.2526 62.6836ZM33.6923 75.5598C32.4952 74.3543 32.4952 72.392 33.6923 71.1858L37.9121 66.9347C39.0977 65.7407 41.0081 65.7407 42.1937 66.9347C43.2992 68.0486 43.3816 69.8057 42.4447 71.0187C42.1869 71.2568 42.5706 70.8738 37.9739 75.5598C36.7883 76.7545 34.8787 76.7553 33.6923 75.5598ZM50.609 79.7857L49.3722 81.0308C48.1866 82.2256 46.277 82.2256 45.0914 81.0308C44.0004 79.9322 43.9065 78.2072 44.8038 76.9971C46.412 75.3713 46.3334 75.4674 46.6134 75.1607C47.8097 74.22 49.518 74.3131 50.609 75.4117C51.806 76.618 51.8053 78.5802 50.609 79.7857ZM81.4516 59.7585C80.266 60.9525 78.3556 60.9525 77.17 59.7585L71.7142 54.2623C70.5744 53.114 68.7189 53.1072 67.5707 54.247C66.4224 55.3868 66.4156 57.2416 67.5554 58.3898L73.012 63.886C74.209 65.0922 74.209 67.0545 73.012 68.2599C71.8263 69.4547 69.9159 69.4547 68.7303 68.2599L63.2745 62.7637C62.1339 61.6155 60.2792 61.6086 59.131 62.7485C57.9828 63.8883 57.9759 65.7438 59.1158 66.892L64.5715 72.3882C65.7694 73.5944 65.7694 75.5567 64.5715 76.7622C63.3867 77.9569 61.4763 77.9569 60.2899 76.7622C54.5465 71.0233 54.8219 71.1492 54.2436 70.7998C52.7513 69.515 50.9027 68.7703 48.9328 68.6696C48.8267 66.5357 47.9661 64.433 46.3525 62.8064C45.5247 61.9733 44.5619 61.3248 43.5144 60.8808C45.5011 57.4605 45.041 52.9836 42.1319 50.0539C39.1504 47.0502 34.6902 46.6863 31.3645 48.6341C30.9335 47.6048 30.3041 46.6397 29.4725 45.8028C25.9934 42.2978 20.3538 42.2978 16.874 45.8028L16.4071 46.2735C16.0851 45.4373 15.915 44.5393 15.915 43.6154C15.915 40.0952 14.5532 36.7856 12.0751 34.2885L6.86805 29.0715L28.0587 7.72365L34.4781 14.1606C35.9124 15.6056 37.7519 16.4944 39.7393 16.7248L26.6473 32.4345C25.612 33.6781 25.7798 35.5252 27.0227 36.5605C30.0279 39.0653 33.8288 40.2501 37.7252 39.8961C41.6208 39.5421 45.1463 37.692 47.6541 34.6822C48.7031 33.4233 50.4678 33.0441 51.9472 33.7582C54.9661 35.217 58.2841 35.7495 61.548 35.3329L81.4516 55.3838C82.6487 56.59 82.6487 58.5523 81.4516 59.7585ZM86.1841 35.4962C84.4805 37.2121 83.5428 39.4917 83.5428 41.9148C83.5428 43.9595 83.0126 45.9203 82.0223 47.6415L67.7728 33.2875C70.6858 31.667 73.0745 29.2309 74.6591 26.2112C75.4106 24.7784 74.8583 23.0076 73.4255 22.2561C71.9927 21.5039 70.2219 22.0562 69.4704 23.4891C67.8804 26.5195 65.1514 28.542 62.0943 29.2912C61.96 29.3118 61.8265 29.3408 61.696 29.3805C59.3469 29.8665 56.8285 29.6094 54.4961 28.4825C50.5907 26.5957 45.9268 27.6028 43.1497 30.9354C41.6467 32.7382 39.5318 33.8483 37.1949 34.0611C35.8667 34.1817 34.5575 34.0039 33.3429 33.553L46.9057 17.2757C47.9684 16.9514 49.0701 16.7622 50.181 16.7622H58.6809C61.0613 16.7622 63.2982 15.8543 64.9805 14.1606L71.5563 7.53367L92.7477 28.8815L86.1841 35.4962Z" fill="#2B76FE"/>
</svg>
