<svg width="153" height="80" viewBox="0 0 153 80" fill="none" xmlns="http://www.w3.org/2000/svg">
<path d="M122.295 39.479C121.817 39.479 121.577 39.2209 121.577 38.7049V1.25018C121.577 0.734109 121.817 0.476074 122.295 0.476074H133.733C138.562 0.476074 142.076 1.48837 144.272 3.51295C146.507 5.49782 147.625 8.55454 147.625 12.6831C147.625 15.3826 147.166 17.6453 146.248 19.4714C145.369 21.2578 143.953 22.5678 141.996 23.4014V23.461L149.421 38.4667C149.7 39.1416 149.54 39.479 148.942 39.479H140.2C139.761 39.479 139.462 39.3003 139.302 38.9431L133.133 25.0092H130.918V38.7049C130.918 39.2209 130.658 39.479 130.14 39.479H122.295ZM130.918 17.4469H133.733C135.29 17.4469 136.427 17.0895 137.146 16.3749C137.905 15.6604 138.283 14.529 138.283 12.9809C138.283 11.4326 137.925 10.3211 137.205 9.64622C136.527 8.93167 135.409 8.57439 133.852 8.57439H130.918V17.4469Z" fill="#2B76FE"/>
<path d="M105.725 39.9557C101.014 39.9557 97.4414 38.725 95.0064 36.2638C92.5712 33.8025 91.3535 30.19 91.3535 25.4264V14.5889C91.3535 9.78546 92.5712 6.15313 95.0064 3.69189C97.4414 1.23063 101.014 0 105.725 0C110.436 0 114.009 1.23063 116.444 3.69189C118.919 6.15313 120.157 9.78546 120.157 14.5889V25.4264C120.157 30.19 118.919 33.8025 116.444 36.2638C114.009 38.725 110.436 39.9557 105.725 39.9557ZM105.725 31.7382C107.481 31.7382 108.759 31.2024 109.557 30.1306C110.396 29.0586 110.815 27.3516 110.815 25.0095V15.0057C110.815 12.6239 110.396 10.897 109.557 9.82516C108.759 8.75333 107.481 8.2174 105.725 8.2174C104.008 8.2174 102.731 8.75333 101.893 9.82516C101.094 10.897 100.695 12.6239 100.695 15.0057V25.0095C100.695 27.3516 101.094 29.0586 101.893 30.1306C102.731 31.2024 104.008 31.7382 105.725 31.7382Z" fill="#2B76FE"/>
<path d="M81.3108 39.479C80.8316 39.479 80.5922 39.2209 80.5922 38.7049V1.25018C80.5922 0.734109 80.8316 0.476074 81.3108 0.476074H89.1551C89.674 0.476074 89.9336 0.734109 89.9336 1.25018V38.7049C89.9336 39.2209 89.674 39.479 89.1551 39.479H81.3108Z" fill="#2B76FE"/>
<path d="M51.5674 39.479C51.0883 39.479 50.8489 39.2209 50.8489 38.7049V1.25018C50.8489 0.734109 51.0883 0.476074 51.5674 0.476074H61.2681C61.6673 0.476074 61.9468 0.654715 62.1065 1.01199L67.6754 16.7322C68.0745 17.7247 68.4538 18.8363 68.8131 20.0668C69.2123 21.2975 69.5915 22.5082 69.9508 23.6992C70.3101 24.8504 70.6096 25.8628 70.849 26.736H70.9688C70.889 25.7039 70.7892 24.4137 70.6694 22.8656C70.5896 21.3173 70.5097 19.7692 70.4299 18.2209C70.35 16.6727 70.3101 15.3826 70.3101 14.3504V1.25018C70.3101 0.734109 70.5497 0.476074 71.0287 0.476074H78.394C78.9131 0.476074 79.1725 0.734109 79.1725 1.25018V38.7049C79.1725 39.2209 78.9131 39.479 78.394 39.479H68.7533C68.354 39.479 68.0745 39.3003 67.9149 38.9431L62.3459 23.5205C61.7472 21.9326 61.1883 20.2455 60.6694 18.4591C60.1503 16.633 59.6913 15.0054 59.292 13.5763H59.1124C59.2321 14.6879 59.332 16.0375 59.4118 17.6254C59.4917 19.1737 59.5516 20.7219 59.5914 22.27C59.6713 23.7785 59.7112 25.1084 59.7112 26.2597V38.7049C59.7112 39.2209 59.4317 39.479 58.8728 39.479H51.5674Z" fill="#2B76FE"/>
<path d="M27.5729 39.479C27.0938 39.479 26.8542 39.2209 26.8542 38.7049V1.25018C26.8542 0.734109 27.0938 0.476074 27.5729 0.476074H48.7108C49.1899 0.476074 49.4294 0.734109 49.4294 1.25018V7.85983C49.4294 8.3759 49.1899 8.63393 48.7108 8.63393H36.1957V15.9582H47.573C48.0521 15.9582 48.2916 16.2162 48.2916 16.7322V22.8656C48.2916 23.4213 48.0521 23.6992 47.573 23.6992H36.1957V31.3211H48.7108C49.1899 31.3211 49.4294 31.5791 49.4294 32.0953V38.7049C49.4294 39.2209 49.1899 39.479 48.7108 39.479H27.5729Z" fill="#2B76FE"/>
<path d="M12.4353 39.9557C7.80448 39.9557 4.49107 38.9235 2.49504 36.8593C0.499008 34.795 -0.299405 31.7978 0.0998016 27.8677C0.139722 27.2325 0.399206 26.915 0.878253 26.915H8.54301C9.02206 26.915 9.22167 27.2127 9.14182 27.8081C9.1019 29.1182 9.36139 30.1702 9.92028 30.9642C10.4792 31.7184 11.3774 32.0956 12.6149 32.0956C13.8525 32.0956 14.7507 31.8574 15.3095 31.3809C15.8684 30.9046 16.1478 30.1504 16.1478 29.1182C16.1478 28.5625 16.0481 28.0663 15.8485 27.6296C15.6888 27.1532 15.4094 26.7363 15.0102 26.3791C14.611 25.9822 14.072 25.5851 13.3933 25.1882L6.92623 21.3176C4.49107 19.8488 2.75452 18.2808 1.71659 16.6134C0.67865 14.9462 0.179643 12.8421 0.219563 10.3015C0.259485 6.96694 1.2575 4.42628 3.21361 2.67959C5.20964 0.893197 8.20369 0 12.1958 0C16.7067 0 20.0201 1.01229 22.136 3.03687C24.2518 5.02175 25.15 7.89983 24.8307 11.6711C24.7907 12.3857 24.5312 12.743 24.0522 12.743H16.2677C15.7487 12.743 15.5291 12.3857 15.6089 11.6711C15.6888 10.639 15.4692 9.74577 14.9503 8.99151C14.4713 8.19756 13.6728 7.80058 12.555 7.80058C11.557 7.80058 10.7985 8.01892 10.2796 8.4556C9.80051 8.89227 9.56099 9.56712 9.56099 10.4802C9.52107 11.3932 9.74063 12.1474 10.2197 12.743C10.6987 13.2987 11.4173 13.8346 12.3754 14.3507L18.8425 18.1021C20.4793 19.0946 21.7767 20.1267 22.7348 21.1985C23.7329 22.2307 24.4315 23.3819 24.8307 24.6522C25.2697 25.8829 25.4693 27.4112 25.4294 29.2373C25.4294 32.7703 24.4115 35.45 22.3755 37.2761C20.3396 39.0625 17.0262 39.9557 12.4353 39.9557Z" fill="#2B76FE"/>
<path d="M84.7859 79.899C84.227 79.899 83.9475 79.6408 83.9475 79.1248V41.6701C83.9475 41.154 84.207 40.896 84.726 40.896H96.2232C101.533 40.896 105.525 42.3252 108.199 45.1833C110.874 48.0019 112.211 52.2297 112.211 57.8667V62.2732C112.211 68.1881 110.874 72.6144 108.199 75.552C105.525 78.4499 101.592 79.899 96.4028 79.899H84.7859ZM93.289 71.7411H96.0435C98.3988 71.7411 100.115 70.9471 101.193 69.3592C102.311 67.7316 102.87 65.3299 102.87 62.1541V57.9858C102.87 55.0482 102.311 52.8252 101.193 51.3167C100.075 49.8081 98.299 49.0539 95.8639 49.0539H93.289V71.7411Z" fill="#2B76FE"/>
<path d="M51.4759 79.899C50.917 79.899 50.7373 79.6012 50.9369 79.0057L60.8173 41.4914C60.9371 41.0945 61.2166 40.896 61.6556 40.896H71.7157C72.1547 40.896 72.4542 41.0945 72.6139 41.4914L82.4942 79.0057C82.614 79.6012 82.4144 79.899 81.8954 79.899H73.2127C72.7735 79.899 72.494 79.7004 72.3743 79.3034L68.1228 57.3903C67.8434 56.0009 67.5838 54.6313 67.3443 53.2817C67.1448 51.8923 66.9452 50.5425 66.7456 49.2325H66.5659C66.3663 50.5425 66.1467 51.8923 65.9072 53.2817C65.6676 54.6711 65.4282 56.0605 65.1886 57.4499L60.8173 79.2439C60.7774 79.6806 60.498 79.899 59.979 79.899H51.4759ZM60.7574 72.6938L62.0748 65.3696H70.9971L72.4342 72.6938H60.7574Z" fill="#2B76FE"/>
<path d="M27.5818 79.899C27.1026 79.899 26.8632 79.6408 26.8632 79.1248V41.6701C26.8632 41.154 27.1026 40.896 27.5818 40.896H48.7197C49.1988 40.896 49.4382 41.154 49.4382 41.6701V48.2797C49.4382 48.7959 49.1988 49.0539 48.7197 49.0539H36.2046V56.3781H47.5819C48.061 56.3781 48.3005 56.6361 48.3005 57.1522V63.2854C48.3005 63.8412 48.061 64.1192 47.5819 64.1192H36.2046V71.7411H48.7197C49.1988 71.7411 49.4382 71.9991 49.4382 72.5152V79.1248C49.4382 79.6408 49.1988 79.899 48.7197 79.899H27.5818Z" fill="#2B76FE"/>
<path d="M1.52955 79.899C1.01058 79.899 0.751099 79.6408 0.751099 79.1248V41.6701C0.751099 41.154 1.01058 40.896 1.52955 40.896H9.31407C9.55359 40.896 9.73323 40.9754 9.853 41.1342C10.0127 41.293 10.0925 41.4716 10.0925 41.6701V71.7411L24.725 71.8421C25.204 71.8421 25.4436 72.1001 25.4436 72.6162V79.2258C25.4436 79.7418 25.204 80 24.725 80L1.52955 79.899Z" fill="#2B76FE"/>
<path d="M131.616 79.2994C132.043 79.7275 132.622 79.9997 133.26 79.9997C133.898 79.9997 134.477 79.7285 134.904 79.2994C135.458 78.7421 135.681 77.9362 135.544 77.1629L135.206 75.2739L133.26 64.3584L131.314 75.2739L130.977 77.1629C130.839 77.9352 131.061 78.7421 131.616 79.2994Z" fill="#2B76FE"/>
<path d="M125.848 77.8696C126.122 78.4082 126.588 78.8451 127.195 79.0414C127.802 79.2377 128.437 79.1578 128.975 78.8816C129.677 78.5226 130.138 77.8242 130.246 77.0469L130.511 75.1461L132.047 64.1655L126.811 73.9477L125.904 75.6403C125.532 76.3328 125.494 77.1683 125.849 77.8686L125.848 77.8696Z" fill="#2B76FE"/>
<path d="M120.807 74.736C120.899 75.3327 121.208 75.892 121.724 76.2649C122.24 76.6377 122.869 76.7581 123.467 76.6614C124.244 76.5352 124.901 76.0133 125.244 75.3071L126.086 73.5809L130.953 63.6104L122.938 71.3023L121.55 72.633C120.982 73.1774 120.686 73.9597 120.806 74.736H120.807Z" fill="#2B76FE"/>
<path d="M116.983 70.2048C116.886 70.8005 117.006 71.4269 117.382 71.9408C117.757 72.4547 118.317 72.7625 118.916 72.8542C119.695 72.9736 120.481 72.6796 121.028 72.1134L122.363 70.7305L130.085 62.7466L120.076 67.5947L118.343 68.4332C117.634 68.7764 117.11 69.4294 116.983 70.2038V70.2048Z" fill="#2B76FE"/>
<path d="M114.753 64.7151C114.476 65.2517 114.396 65.8849 114.593 66.4886C114.79 67.0923 115.228 67.5579 115.769 67.8301C116.472 68.1833 117.311 68.1448 118.006 67.7759L119.705 66.8723L129.526 61.6562L118.502 63.1862L116.594 63.4505C115.814 63.558 115.113 64.0187 114.752 64.7161L114.753 64.7151Z" fill="#2B76FE"/>
<path d="M114.336 58.8111C113.906 59.2362 113.633 59.8132 113.633 60.4485C113.633 61.0837 113.905 61.6608 114.336 62.0859C114.895 62.6383 115.704 62.8602 116.481 62.7231L118.377 62.3868L129.335 60.4485L118.377 58.5102L116.481 58.1738C115.705 58.0367 114.895 58.2577 114.336 58.8111Z" fill="#2B76FE"/>
<path d="M115.769 53.0653C115.228 53.3376 114.79 53.8021 114.593 54.4068C114.396 55.0115 114.476 55.6438 114.753 56.1804C115.114 56.8787 115.815 57.3384 116.595 57.4459L118.503 57.7103L129.527 59.2402L119.706 54.0241L118.007 53.1205C117.312 52.7506 116.473 52.7122 115.77 53.0663L115.769 53.0653Z" fill="#2B76FE"/>
<path d="M118.917 48.0424C118.318 48.1341 117.756 48.4419 117.382 48.9558C117.008 49.4697 116.887 50.096 116.984 50.6918C117.111 51.4662 117.634 52.1201 118.343 52.4624L120.076 53.3009L130.086 58.149L122.364 50.1651L121.028 48.7822C120.481 48.217 119.696 47.922 118.917 48.0414V48.0424Z" fill="#2B76FE"/>
<path d="M123.467 44.2342C122.869 44.1375 122.24 44.2569 121.724 44.6307C121.208 45.0046 120.899 45.5629 120.807 46.1596C120.687 46.9349 120.982 47.7181 121.551 48.2626L122.939 49.5933L130.954 57.2852L126.087 47.3147L125.245 45.5885C124.901 44.8822 124.245 44.3604 123.468 44.2342H123.467Z" fill="#2B76FE"/>
<path d="M128.975 42.012C128.437 41.7358 127.801 41.6559 127.195 41.8522C126.589 42.0485 126.121 42.4854 125.848 43.024C125.494 43.7244 125.532 44.5598 125.903 45.2523L126.81 46.945L132.046 56.7271L130.51 45.7465L130.245 43.8457C130.137 43.0684 129.674 42.37 128.974 42.011L128.975 42.012Z" fill="#2B76FE"/>
<path d="M134.904 41.5963C134.477 41.1682 133.898 40.896 133.26 40.896C132.622 40.896 132.043 41.1673 131.616 41.5963C131.062 42.1537 130.839 42.9595 130.977 43.7329L131.314 45.6218L133.26 56.5373L135.206 45.6218L135.544 43.7329C135.681 42.9605 135.459 42.1537 134.904 41.5963Z" fill="#2B76FE"/>
<path d="M140.672 43.024C140.399 42.4854 139.933 42.0485 139.325 41.8522C138.718 41.6559 138.084 41.7358 137.545 42.012C136.844 42.371 136.382 43.0694 136.275 43.8467L136.009 45.7475L134.473 56.7281L139.71 46.9459L140.617 45.2533C140.988 44.5608 141.027 43.7254 140.671 43.025L140.672 43.024Z" fill="#2B76FE"/>
<path d="M145.714 46.1595C145.622 45.5627 145.313 45.0035 144.797 44.6306C144.281 44.2577 143.653 44.1374 143.055 44.2341C142.277 44.3603 141.621 44.8821 141.277 45.5884L140.435 47.3146L135.568 57.2851L143.583 49.5932L144.972 48.2625C145.539 47.718 145.835 46.9358 145.715 46.1595H145.714Z" fill="#2B76FE"/>
<path d="M149.538 50.6929C149.635 50.0971 149.515 49.4707 149.14 48.9568C148.765 48.4429 148.204 48.1351 147.605 48.0434C146.827 47.924 146.041 48.218 145.494 48.7842L144.158 50.1671L136.436 58.151L146.446 53.3029L148.179 52.4644C148.888 52.1212 149.411 51.4682 149.538 50.6938V50.6929Z" fill="#2B76FE"/>
<path d="M151.767 56.1796C152.044 55.643 152.124 55.0098 151.927 54.4061C151.73 53.8024 151.292 53.3368 150.751 53.0646C150.048 52.7114 149.209 52.7499 148.514 53.1188L146.815 54.0224L136.994 59.2385L148.018 57.7086L149.926 57.4442C150.706 57.3367 151.408 56.876 151.768 56.1786L151.767 56.1796Z" fill="#2B76FE"/>
<path d="M152.186 62.0858C152.616 61.6607 152.889 61.0836 152.889 60.4484C152.889 59.8131 152.617 59.2361 152.186 58.811C151.626 58.2586 150.817 58.0366 150.041 58.1737L148.145 58.5101L137.187 60.4484L148.145 62.3867L150.041 62.723C150.816 62.8601 151.626 62.6392 152.186 62.0858Z" fill="#2B76FE"/>
<path d="M150.751 67.8311C151.292 67.5589 151.73 67.0943 151.928 66.4896C152.125 65.8849 152.044 65.2527 151.767 64.7161C151.407 64.0177 150.706 63.558 149.925 63.4505L148.017 63.1862L136.994 61.6562L146.814 66.8723L148.513 67.7759C149.208 68.1458 150.047 68.1842 150.75 67.8301L150.751 67.8311Z" fill="#2B76FE"/>
<path d="M147.605 72.8542C148.204 72.7625 148.766 72.4547 149.14 71.9408C149.514 71.4269 149.635 70.8005 149.538 70.2047C149.411 69.4304 148.888 68.7764 148.179 68.4342L146.446 67.5957L136.436 62.7476L144.158 70.7315L145.494 72.1144C146.041 72.6796 146.826 72.9746 147.605 72.8552V72.8542Z" fill="#2B76FE"/>
<path d="M143.054 76.6614C143.652 76.7581 144.281 76.6387 144.797 76.2649C145.313 75.891 145.622 75.3327 145.714 74.736C145.833 73.9607 145.538 73.1774 144.97 72.633L143.582 71.3023L135.567 63.6104L140.434 73.5809L141.275 75.3071C141.62 76.0133 142.276 76.5352 143.053 76.6614H143.054Z" fill="#2B76FE"/>
<path d="M137.545 78.8816C138.084 79.1578 138.72 79.2377 139.326 79.0414C139.932 78.8451 140.399 78.4081 140.672 77.8696C141.027 77.1692 140.988 76.3337 140.618 75.6413L139.711 73.9486L134.474 64.1665L136.01 75.1471L136.276 77.0479C136.384 77.8252 136.846 78.5236 137.546 78.8826L137.545 78.8816Z" fill="#2B76FE"/>
</svg>
