<svg width="106" height="55" viewBox="0 0 106 55" fill="none" xmlns="http://www.w3.org/2000/svg">
<path d="M84.0775 27.1415C83.7489 27.1415 83.5837 26.9641 83.5837 26.6093V0.85934C83.5837 0.504546 83.7489 0.327148 84.0775 0.327148H91.9413C95.2615 0.327148 97.6772 1.02309 99.1869 2.41499C100.723 3.77958 101.492 5.88106 101.492 8.71942C101.492 10.5753 101.176 12.1309 100.545 13.3863C99.9409 14.6145 98.9673 15.5151 97.6219 16.0882V16.1292L102.727 26.4456C102.919 26.9095 102.809 27.1415 102.397 27.1415H96.3872C96.0854 27.1415 95.8797 27.0187 95.7699 26.7731L91.5289 17.1936H90.0062V26.6093C90.0062 26.9641 89.8273 27.1415 89.471 27.1415H84.0775ZM90.0062 11.9945H91.9413C93.0117 11.9945 93.7933 11.7488 94.2879 11.2576C94.8092 10.7663 95.0695 9.98849 95.0695 8.92414C95.0695 7.85973 94.8231 7.09556 94.3285 6.63159C93.8625 6.14034 93.0938 5.89471 92.0234 5.89471H90.0062V11.9945Z" fill="white"/>
<path d="M72.686 27.4694C69.4474 27.4694 66.991 26.6233 65.3169 24.9312C63.6427 23.2391 62.8055 20.7555 62.8055 17.4805V10.0298C62.8055 6.72747 63.6427 4.23026 65.3169 2.53816C66.991 0.846053 69.4474 0 72.686 0C75.9244 0 78.3809 0.846053 80.055 2.53816C81.7569 4.23026 82.6077 6.72747 82.6077 10.0298V17.4805C82.6077 20.7555 81.7569 23.2391 80.055 24.9312C78.3809 26.6233 75.9244 27.4694 72.686 27.4694ZM72.686 21.8199C73.8935 21.8199 74.7718 21.4515 75.3207 20.7146C75.897 19.9777 76.1852 18.8041 76.1852 17.1939V10.3163C76.1852 8.67888 75.897 7.49165 75.3207 6.75477C74.7718 6.01788 73.8935 5.64944 72.686 5.64944C71.5057 5.64944 70.6275 6.01788 70.0512 6.75477C69.5023 7.49165 69.2278 8.67888 69.2278 10.3163V17.1939C69.2278 18.8041 69.5023 19.9777 70.0512 20.7146C70.6275 21.4515 71.5057 21.8199 72.686 21.8199Z" fill="white"/>
<path d="M55.9012 27.1415C55.5717 27.1415 55.4071 26.9641 55.4071 26.6093V0.85934C55.4071 0.504546 55.5717 0.327148 55.9012 0.327148H61.2941C61.6509 0.327148 61.8293 0.504546 61.8293 0.85934V26.6093C61.8293 26.9641 61.6509 27.1415 61.2941 27.1415H55.9012Z" fill="white"/>
<path d="M35.4528 27.1415C35.1235 27.1415 34.9589 26.9641 34.9589 26.6093V0.85934C34.9589 0.504546 35.1235 0.327148 35.4528 0.327148H42.1221C42.3965 0.327148 42.5886 0.449963 42.6985 0.695591L46.527 11.5032C46.8015 12.1855 47.0623 12.9497 47.3093 13.7957C47.5837 14.6418 47.8444 15.4742 48.0914 16.293C48.3385 17.0844 48.5443 17.7804 48.7089 18.3808H48.7913C48.7364 17.6712 48.6678 16.7842 48.5855 15.7199C48.5306 14.6554 48.4757 13.5911 48.4208 12.5266C48.3659 11.4623 48.3385 10.5753 48.3385 9.86572V0.85934C48.3385 0.504546 48.5032 0.327148 48.8325 0.327148H53.8961C54.253 0.327148 54.4313 0.504546 54.4313 0.85934V26.6093C54.4313 26.9641 54.253 27.1415 53.8961 27.1415H47.2681C46.9936 27.1415 46.8015 27.0187 46.6918 26.7731L42.8631 16.1701C42.4514 15.0784 42.0672 13.9186 41.7104 12.6904C41.3536 11.4349 41.038 10.316 40.7635 9.33351H40.64C40.7223 10.0977 40.791 11.0256 40.8459 12.1173C40.9008 13.1817 40.9419 14.2461 40.9694 15.3104C41.0243 16.3475 41.0517 17.2618 41.0517 18.0533V26.6093C41.0517 26.9641 40.8596 27.1415 40.4753 27.1415H35.4528Z" fill="white"/>
<path d="M18.9562 27.1415C18.6269 27.1415 18.4622 26.9641 18.4622 26.6093V0.85934C18.4622 0.504546 18.6269 0.327148 18.9562 0.327148H33.4885C33.8179 0.327148 33.9826 0.504546 33.9826 0.85934V5.40346C33.9826 5.75825 33.8179 5.93565 33.4885 5.93565H24.8844V10.9711H32.7063C33.0356 10.9711 33.2003 11.1484 33.2003 11.5032V15.7199C33.2003 16.1019 33.0356 16.293 32.7063 16.293H24.8844V21.533H33.4885C33.8179 21.533 33.9826 21.7104 33.9826 22.0652V26.6093C33.9826 26.9641 33.8179 27.1415 33.4885 27.1415H18.9562Z" fill="white"/>
<path d="M8.54923 27.4694C5.36558 27.4694 3.0876 26.7598 1.71534 25.3406C0.343067 23.9214 -0.205841 21.8609 0.0686135 19.159C0.096059 18.7223 0.274454 18.504 0.603798 18.504H5.87331C6.20266 18.504 6.33989 18.7086 6.28499 19.118C6.25755 20.0187 6.43595 20.7419 6.82018 21.2878C7.20442 21.8063 7.82194 22.0656 8.6727 22.0656C9.52358 22.0656 10.1411 21.9018 10.5253 21.5743C10.9095 21.2468 11.1016 20.7283 11.1016 20.0187C11.1016 19.6366 11.0331 19.2955 10.8958 18.9952C10.786 18.6677 10.5939 18.3811 10.3195 18.1355C10.045 17.8626 9.67447 17.5897 9.20791 17.3168L4.76178 14.6558C3.0876 13.646 1.89373 12.568 1.18015 11.4217C0.466572 10.2755 0.123504 8.82892 0.150949 7.08227C0.178395 4.78974 0.864529 3.04305 2.20935 1.84221C3.58162 0.61407 5.64003 0 8.3846 0C11.4859 0 13.7638 0.695946 15.2185 2.08784C16.6731 3.45244 17.2906 5.43111 17.0711 8.02384C17.0436 8.51514 16.8652 8.76076 16.5358 8.76076H11.184C10.8272 8.76076 10.6762 8.51514 10.7311 8.02384C10.786 7.31425 10.6351 6.70018 10.2783 6.18163C9.94898 5.6358 9.40003 5.36287 8.63155 5.36287C7.94544 5.36287 7.42398 5.51298 7.06719 5.81319C6.73784 6.1134 6.57317 6.57736 6.57317 7.20508C6.54573 7.8328 6.69668 8.35131 7.02602 8.76076C7.35536 9.14278 7.84938 9.51125 8.50807 9.86608L12.9542 12.4451C14.0795 13.1275 14.9715 13.8371 15.6301 14.5739C16.3163 15.2835 16.7966 16.075 17.0711 16.9483C17.3729 17.7944 17.5101 18.8451 17.4827 20.1006C17.4827 22.5295 16.7829 24.3718 15.3831 25.6272C13.9834 26.8553 11.7055 27.4694 8.54923 27.4694Z" fill="white"/>
<path d="M58.2905 54.9301C57.9062 54.9301 57.7141 54.7527 57.7141 54.3979V28.6479C57.7141 28.2931 57.8925 28.1157 58.2493 28.1157H66.1536C69.8038 28.1157 72.5484 29.0983 74.3872 31.0632C76.2261 33.001 77.1454 35.9076 77.1454 39.783V42.8125C77.1454 46.879 76.2261 49.922 74.3872 51.9416C72.5484 53.9339 69.845 54.9301 66.2771 54.9301H58.2905ZM64.1363 49.3216H66.0301C67.6493 49.3216 68.8295 48.7758 69.5706 47.6841C70.339 46.5651 70.7232 44.9139 70.7232 42.7306V39.8649C70.7232 37.8453 70.339 36.317 69.5706 35.2799C68.8021 34.2427 67.5808 33.7242 65.9066 33.7242H64.1363V49.3216Z" fill="white"/>
<path d="M35.3899 54.9301C35.0057 54.9301 34.8821 54.7254 35.0194 54.316L41.8121 28.5251C41.8945 28.2522 42.0866 28.1157 42.3885 28.1157H49.3047C49.6066 28.1157 49.8125 28.2522 49.9223 28.5251L56.715 54.316C56.7973 54.7254 56.6601 54.9301 56.3033 54.9301H50.3339C50.032 54.9301 49.8399 54.7936 49.7576 54.5207L46.8347 39.4555C46.6425 38.5003 46.4641 37.5587 46.2995 36.6309C46.1622 35.6756 46.025 34.7477 45.8878 33.847H45.7642C45.627 34.7477 45.4761 35.6756 45.3114 36.6309C45.1467 37.5861 44.9821 38.5413 44.8174 39.4965L41.8121 54.4798C41.7847 54.78 41.5926 54.9301 41.2358 54.9301H35.3899ZM41.7709 49.9766L42.6766 44.9413H48.8107L49.7987 49.9766H41.7709Z" fill="white"/>
<path d="M18.9627 54.9301C18.6333 54.9301 18.4686 54.7527 18.4686 54.3979V28.6479C18.4686 28.2931 18.6333 28.1157 18.9627 28.1157H33.495C33.8243 28.1157 33.989 28.2931 33.989 28.6479V33.192C33.989 33.5469 33.8243 33.7242 33.495 33.7242H24.8909V38.7596H32.7128C33.0421 38.7596 33.2068 38.937 33.2068 39.2918V43.5084C33.2068 43.8905 33.0421 44.0816 32.7128 44.0816H24.8909V49.3216H33.495C33.8243 49.3216 33.989 49.499 33.989 49.8538V54.3979C33.989 54.7527 33.8243 54.9301 33.495 54.9301H18.9627Z" fill="white"/>
<path d="M1.0519 54.9301C0.695118 54.9301 0.516724 54.7527 0.516724 54.3979V28.6479C0.516724 28.2931 0.695118 28.1157 1.0519 28.1157H6.40376C6.56843 28.1157 6.69193 28.1703 6.77427 28.2795C6.88405 28.3887 6.93894 28.5115 6.93894 28.6479V49.3216L16.9987 49.391C17.3281 49.391 17.4928 49.5684 17.4928 49.9233V54.4673C17.4928 54.8221 17.3281 54.9996 16.9987 54.9996L1.0519 54.9301Z" fill="white"/>
<path d="M90.4863 54.5185C90.7797 54.8128 91.178 55 91.6164 55C92.0548 55 92.4531 54.8135 92.7465 54.5185C93.1277 54.1353 93.2809 53.5813 93.1863 53.0496L92.9541 51.751L91.6164 44.2466L90.2786 51.751L90.0465 53.0496C89.9518 53.5806 90.1043 54.1353 90.4863 54.5185Z" fill="white"/>
<path d="M86.5207 53.5353C86.7086 53.9055 87.0292 54.2059 87.4466 54.3409C87.8639 54.4759 88.3003 54.4209 88.6706 54.231C89.1526 53.9842 89.4699 53.5041 89.5441 52.9697L89.7265 51.6629L90.7825 44.1138L87.1824 50.8389L86.5588 52.0026C86.3035 52.4787 86.277 53.0531 86.5214 53.5346L86.5207 53.5353Z" fill="white"/>
<path d="M83.0547 51.3812C83.118 51.7915 83.3304 52.176 83.6851 52.4324C84.0398 52.6887 84.4721 52.7714 84.8833 52.705C85.4177 52.6182 85.8691 52.2594 86.1053 51.7739L86.684 50.5871L90.0301 43.7324L84.5197 49.0206L83.5653 49.9354C83.1752 50.3098 82.9716 50.8475 83.054 51.3812H83.0547Z" fill="white"/>
<path d="M80.4259 48.2657C80.3592 48.6753 80.4416 49.1059 80.6996 49.4592C80.9576 49.8125 81.3429 50.0241 81.7548 50.0872C82.2899 50.1692 82.8305 49.9671 83.2063 49.5779L84.1247 48.6271L89.4335 43.1382L82.552 46.4713L81.3606 47.0477C80.8732 47.2837 80.5131 47.7326 80.4259 48.265V48.2657Z" fill="white"/>
<path d="M78.8928 44.4921C78.7022 44.861 78.6471 45.2964 78.7825 45.7114C78.918 46.1264 79.2196 46.4465 79.5913 46.6337C80.0747 46.8765 80.6513 46.85 81.1292 46.5964L82.2975 45.9752L89.0489 42.3892L81.4703 43.441L80.1584 43.6227C79.622 43.6966 79.14 44.0133 78.8922 44.4928L78.8928 44.4921Z" fill="white"/>
<path d="M78.6057 40.4326C78.3102 40.7248 78.1223 41.1216 78.1223 41.5583C78.1223 41.995 78.3095 42.3917 78.6057 42.684C78.9903 43.0638 79.5465 43.2164 80.0803 43.1221L81.384 42.8908L88.9177 41.5583L81.384 40.2257L80.0803 39.9945C79.5472 39.9002 78.9903 40.0521 78.6057 40.4326Z" fill="white"/>
<path d="M79.5913 36.4821C79.2196 36.6692 78.918 36.9886 78.7825 37.4043C78.6471 37.82 78.7022 38.2547 78.8928 38.6236C79.1406 39.1038 79.6226 39.4198 80.1591 39.4937L81.471 39.6755L89.0496 40.7273L82.2982 37.1412L81.1299 36.52C80.652 36.2657 80.0754 36.2393 79.592 36.4827L79.5913 36.4821Z" fill="white"/>
<path d="M81.7554 33.029C81.3435 33.092 80.9575 33.3036 80.7001 33.6569C80.4428 34.0102 80.3597 34.4409 80.4264 34.8505C80.5136 35.3828 80.8737 35.8324 81.3612 36.0677L82.5526 36.6442L89.434 39.9773L84.1252 34.4883L83.2068 33.5376C82.831 33.149 82.2911 32.9462 81.7554 33.0283V33.029Z" fill="white"/>
<path d="M84.8834 30.4112C84.4722 30.3447 84.0399 30.4268 83.6852 30.6838C83.3305 30.9408 83.1181 31.3246 83.0548 31.7349C82.9724 32.2679 83.1753 32.8064 83.566 33.1807L84.5205 34.0955L90.0309 39.3837L86.6848 32.529L86.1061 31.3423C85.8692 30.8567 85.4185 30.498 84.8841 30.4112H84.8834Z" fill="white"/>
<path d="M88.6704 28.8832C88.3001 28.6933 87.863 28.6384 87.4464 28.7733C87.0297 28.9083 86.7084 29.2087 86.5205 29.579C86.2768 30.0605 86.3033 30.6349 86.5579 31.1109L87.1815 32.2746L90.7816 38.9998L89.7257 31.4507L89.5432 30.1439C89.469 29.6095 89.1511 29.1294 88.6698 28.8825L88.6704 28.8832Z" fill="white"/>
<path d="M92.7464 28.5972C92.453 28.3029 92.0548 28.1157 91.6163 28.1157C91.1779 28.1157 90.7796 28.3022 90.4862 28.5972C90.105 28.9804 89.9518 29.5344 90.0464 30.0661L90.2786 31.3647L91.6163 38.8691L92.9541 31.3647L93.1862 30.0661C93.2809 29.5351 93.1284 28.9804 92.7464 28.5972Z" fill="white"/>
<path d="M96.7121 29.579C96.5242 29.2087 96.2035 28.9083 95.7862 28.7733C95.3689 28.6384 94.9325 28.6933 94.5621 28.8832C94.0801 29.13 93.7629 29.6102 93.6887 30.1446L93.5062 31.4513L92.4503 39.0005L96.0504 32.2753L96.674 31.1116C96.9293 30.6355 96.9558 30.0611 96.7114 29.5797L96.7121 29.579Z" fill="white"/>
<path d="M100.179 31.7348C100.115 31.3246 99.9028 30.9401 99.5481 30.6837C99.1934 30.4274 98.7611 30.3446 98.3499 30.4111C97.8155 30.4979 97.3641 30.8566 97.1279 31.3422L96.5492 32.529L93.2031 39.3837L98.7135 34.0955L99.668 33.1807C100.058 32.8063 100.262 32.2685 100.179 31.7348H100.179Z" fill="white"/>
<path d="M102.807 34.8513C102.874 34.4417 102.792 34.0111 102.534 33.6578C102.276 33.3044 101.89 33.0929 101.478 33.0298C100.943 32.9477 100.403 33.1498 100.027 33.5391L99.1086 34.4898L93.7998 39.9788L100.681 36.6457L101.873 36.0692C102.36 35.8333 102.72 35.3843 102.807 34.852V34.8513Z" fill="white"/>
<path d="M104.34 38.6233C104.531 38.2544 104.586 37.8191 104.45 37.404C104.315 36.989 104.013 36.6689 103.641 36.4817C103.158 36.239 102.581 36.2654 102.104 36.519L100.935 37.1402L94.1838 40.7263L101.762 39.6745L103.074 39.4927C103.611 39.4188 104.093 39.1021 104.341 38.6227L104.34 38.6233Z" fill="white"/>
<path d="M104.628 42.684C104.923 42.3917 105.111 41.995 105.111 41.5582C105.111 41.1215 104.924 40.7248 104.628 40.4325C104.243 40.0527 103.687 39.9002 103.153 39.9944L101.849 40.2257L94.3157 41.5582L101.849 42.8908L103.153 43.122C103.686 43.2163 104.243 43.0644 104.628 42.684Z" fill="white"/>
<path d="M103.641 46.6344C104.013 46.4472 104.315 46.1278 104.45 45.7121C104.586 45.2964 104.53 44.8617 104.34 44.4928C104.092 44.0126 103.61 43.6966 103.073 43.6227L101.762 43.441L94.183 42.3892L100.934 45.9752L102.103 46.5964C102.581 46.8507 103.157 46.8771 103.641 46.6337L103.641 46.6344Z" fill="white"/>
<path d="M101.478 50.087C101.89 50.0239 102.276 49.8123 102.534 49.459C102.791 49.1057 102.874 48.6751 102.807 48.2655C102.72 47.7331 102.36 47.2835 101.873 47.0482L100.681 46.4718L93.7998 43.1387L99.1086 48.6276L100.027 49.5784C100.403 49.9669 100.943 50.1697 101.478 50.0876V50.087Z" fill="white"/>
<path d="M98.3493 52.705C98.7605 52.7714 99.1928 52.6894 99.5475 52.4324C99.9022 52.1753 100.115 51.7915 100.178 51.3812C100.26 50.8482 100.057 50.3098 99.6666 49.9354L98.7121 49.0206L93.2018 43.7324L96.5479 50.5871L97.1266 51.7739C97.3635 52.2594 97.8142 52.6182 98.3486 52.705H98.3493Z" fill="white"/>
<path d="M94.5622 54.2309C94.9325 54.4207 95.3696 54.4757 95.7863 54.3407C96.2029 54.2058 96.5242 53.9053 96.7121 53.5351C96.9559 53.0536 96.9293 52.4792 96.6747 52.0031L96.0511 50.8394L92.451 44.1143L93.507 51.6634L93.6894 52.9702C93.7636 53.5046 94.0816 53.9847 94.5629 54.2315L94.5622 54.2309Z" fill="white"/>
</svg>
